<?xml version="1.0" encoding="utf-8"?>
<!-- Generator: Adobe Illustrator 23.0.1, SVG Export Plug-In . SVG Version: 6.00 Build 0)  -->
<svg version="1.1" id="Layer_1" xmlns="http://www.w3.org/2000/svg" xmlns:xlink="http://www.w3.org/1999/xlink" x="0px" y="0px"
	 viewBox="0 0 4975 4975" style="enable-background:new 0 0 4975 4975;" xml:space="preserve">
<style type="text/css">
	.st0{clip-path:url(#SVGID_2_);fill:#FFD400;}
	.st1{fill:#FFD400;}
	.st2{clip-path:url(#SVGID_4_);fill:#F7941D;}
	.st3{fill:#F7941D;}
	.st4{clip-path:url(#SVGID_6_);fill:#ED1C24;}
	.st5{fill:#ED1C24;}
	.st6{clip-path:url(#SVGID_8_);fill:#1B75BC;}
	.st7{fill:#1B75BC;}
	.st8{clip-path:url(#SVGID_10_);fill:#27AAE1;}
	.st9{fill:#27AAE1;}
	.st10{clip-path:url(#SVGID_12_);fill:#006838;}
	.st11{fill:#006838;}
	.st12{font-family:'TitilliumWeb-Bold';}
	.st13{font-size:541.1251px;}
</style>
<g>
	<g>
		<g>
			<g>
				<defs>
					<rect id="SVGID_1_" x="1707.9" y="257.2" width="1632.7" height="1776.7"/>
				</defs>
				<clipPath id="SVGID_2_">
					<use xlink:href="#SVGID_1_"  style="overflow:visible;"/>
				</clipPath>
				<path class="st0" d="M3257.6,278.7c-181.1-81-323.7,721-740.5,770.7c-415.6-58.9-540.4-863.9-723.2-787
					c-189.8,79.9-18.6,356.2,67,588.6c114.1,309.9,299.4,826.3,299.4,826.3s107.7,353.9,345.8,356.6
					c238.1,2.6,353.6-348.8,353.6-348.8s196.7-512.2,317.7-819.5C3268.2,635.2,3445.5,362.8,3257.6,278.7"/>
			</g>
		</g>
	</g>
	<path class="st1" d="M2832.4,450.3c-1.9,170.4-142.9,424.6-313.3,422.7c-170.4-1.9-305.7-259.1-303.8-429.6s141.6-307.1,312-305.2
		C2697.6,140.2,2834.3,279.9,2832.4,450.3"/>
	<g>
		<g>
			<g>
				<defs>
					<rect id="SVGID_3_" x="614.4" y="477" width="1925.3" height="1695"/>
				</defs>
				<clipPath id="SVGID_4_">
					<use xlink:href="#SVGID_3_"  style="overflow:visible;"/>
				</clipPath>
				<path class="st2" d="M1361.8,505.5c-160.7,116.3,462.5,640.8,297.2,1026.6c-258.9,330.4-1018.3,36-1043.1,232.8
					c-25.7,204.3,299.2,194.2,543.2,236.3c325.4,56.1,865.3,153.8,865.3,153.8s360.4,83.7,481.7-121.2
					c121.3-204.9-125.2-480.7-125.2-480.7s-345.2-426.5-550.8-684.9C1675.9,674.6,1528.6,384.8,1361.8,505.5"/>
			</g>
		</g>
	</g>
	<path class="st3" d="M1297.8,959.6c146.6,86.9,296.3,336,209.4,482.7c-86.9,146.6-377.3,135.2-523.9,48.4
		c-146.6-86.9-195.1-276.1-108.3-422.8S1151.2,872.8,1297.8,959.6"/>
	<g>
		<g>
			<g>
				<defs>
					<rect id="SVGID_5_" x="609.4" y="1888.6" width="1927.6" height="1678.2"/>
				</defs>
				<clipPath id="SVGID_6_">
					<use xlink:href="#SVGID_5_"  style="overflow:visible;"/>
				</clipPath>
				<path class="st4" d="M610.4,2260.7c20.4,197.3,786.2-80.2,1037.7,256c156.7,389.4-478,899.9-319.9,1019.8
					c164.1,124.4,317.7-162,476.2-352.3c211.3-253.8,565.9-672.5,565.9-672.5s252.6-270.2,135.9-477.7
					c-116.8-207.5-478.9-131.9-478.9-131.9s-541.9,85.7-868.5,134.6C913.8,2073.3,589.2,2056,610.4,2260.7"/>
			</g>
		</g>
	</g>
	<path class="st5" d="M971.6,2543.2c148.5-83.6,439.2-88.5,522.7,60c83.6,148.5-71.6,394.4-220.1,477.9
		c-148.5,83.6-336.7,30.9-420.3-117.6C770.4,2814.9,823.1,2626.8,971.6,2543.2"/>
	<g>
		<g>
			<g>
				<defs>
					<rect id="SVGID_7_" x="1671.7" y="2033.9" width="1632.7" height="1776.7"/>
				</defs>
				<clipPath id="SVGID_8_">
					<use xlink:href="#SVGID_7_"  style="overflow:visible;"/>
				</clipPath>
				<path class="st6" d="M1754.7,3789.1c181.1,81,323.7-721,740.5-770.7c415.6,58.9,540.4,863.9,723.2,787
					c189.8-79.9,18.6-356.2-67-588.6c-114.1-309.9-299.4-826.3-299.4-826.3s-107.7-353.9-345.8-356.6
					c-238.1-2.6-353.6,348.8-353.6,348.8s-196.7,512.2-317.7,819.5C1744,3432.6,1566.8,3705.1,1754.7,3789.1"/>
			</g>
		</g>
	</g>
	<path class="st7" d="M2179.9,3617.5c1.9-170.4,142.9-424.6,313.3-422.7c170.4,1.9,305.7,259.1,303.8,429.6
		c-1.9,170.4-141.6,307.1-312,305.2C2314.6,3927.6,2178,3787.9,2179.9,3617.5"/>
	<g>
		<g>
			<g>
				<defs>
					<rect id="SVGID_9_" x="2472.6" y="1895.8" width="1925.3" height="1695"/>
				</defs>
				<clipPath id="SVGID_10_">
					<use xlink:href="#SVGID_9_"  style="overflow:visible;"/>
				</clipPath>
				<path class="st8" d="M3650.5,3562.3c160.7-116.3-462.5-640.8-297.2-1026.6c258.9-330.4,1018.3-36,1043.1-232.8
					c25.7-204.3-299.2-194.2-543.3-236.3c-325.4-56.1-865.3-153.8-865.3-153.8s-360.4-83.7-481.7,121.2
					c-121.3,204.9,125.2,480.7,125.2,480.7s345.2,426.5,550.8,684.9C3336.4,3393.3,3483.7,3683,3650.5,3562.3"/>
			</g>
		</g>
	</g>
	<path class="st9" d="M3714.4,3108.2c-146.6-86.9-296.3-336-209.4-482.7c86.9-146.6,377.3-135.2,523.9-48.4
		c146.6,86.9,195.1,276.1,108.3,422.8C4050.4,3146.6,3861.1,3195.1,3714.4,3108.2"/>
	<g>
		<g>
			<defs>
				<rect id="SVGID_11_" x="2475.3" y="501" width="1927.6" height="1678.2"/>
			</defs>
			<clipPath id="SVGID_12_">
				<use xlink:href="#SVGID_11_"  style="overflow:visible;"/>
			</clipPath>
			<path class="st10" d="M4401.9,1807.1c-20.4-197.3-786.2,80.2-1037.7-256c-156.7-389.4,478-899.9,319.9-1019.8
				c-164-124.4-317.7,162-476.2,352.3c-211.3,253.8-565.9,672.5-565.9,672.5s-252.6,270.2-135.9,477.7
				c116.7,207.5,478.9,131.9,478.9,131.9s541.9-85.7,868.5-134.6C4098.5,1994.5,4423.1,2011.9,4401.9,1807.1"/>
		</g>
	</g>
	<path class="st11" d="M4040.7,1524.6c-148.5,83.6-439.2,88.5-522.7-60c-83.6-148.5,71.6-394.4,220.1-477.9
		c148.5-83.6,336.7-30.9,420.3,117.6C4241.9,1252.9,4189.2,1441.1,4040.7,1524.6"/>
</g>
<text transform="matrix(1 0 0 1 503.8032 4752.708)" class="st7 st12 st13">SNEHATHEERAM</text>
</svg>
